# xmcd
#
# Track frame offsets:
#	150
#	23062
#	43107
#	65015
#	82937
#	110162
#	124322
#	140112
#	170890
#	195020
#	215010
#	239695
#	258845
#	274852
#
# Disc length: 3784 seconds
#
# Revision: 1
# Processed by: cddbd v1.5.2PL0 Copyright (c) Steve Scherf et al.
# Submitted via: EZCDAudioConverter 3.1.0.1
#
DISCID=d70ec60e
DTITLE=Bill Frisell - Nashville
DYEAR=1997
DGENRE=Country
TTITLE0=Gimme A Holler
TTITLE1=Go Jake
TTITLE2=One Of These Days
TTITLE3=Mr. Memory
TTITLE4=Brother
TTITLE5=Will Jesus Wash The Bloodstains From Your Hands
TTITLE6=Keep Your Eyes Open
TTITLE7=Pipe Down
TTITLE8=Family
TTITLE9=We're Not From Around Here
TTITLE10=Dogwood Acres
TTITLE11=Shucks
TTITLE12=The End Of The World
TTITLE13=Gone
EXTD=
EXTT0=
EXTT1=
EXTT2=
EXTT3=
EXTT4=
EXTT5=
EXTT6=
EXTT7=
EXTT8=
EXTT9=
EXTT10=
EXTT11=
EXTT12=
EXTT13=
PLAYORDER=
